<svg xmlns="http://www.w3.org/2000/svg" width="760" height="420" viewBox="0 0 760 420">
  <rect width="760" height="420" fill="#f8fbff"/>
  <text x="380" y="34" text-anchor="middle" font-family="Arial" font-size="24" fill="#1e3a8a">Heatmap Example</text>
  <g transform="translate(180,90)">
    <rect x="0" y="0" width="80" height="80" fill="#dc2626"/><rect x="80" y="0" width="80" height="80" fill="#f97316"/><rect x="160" y="0" width="80" height="80" fill="#60a5fa"/><rect x="240" y="0" width="80" height="80" fill="#2563eb"/>
    <rect x="0" y="80" width="80" height="80" fill="#f97316"/><rect x="80" y="80" width="80" height="80" fill="#dc2626"/><rect x="160" y="80" width="80" height="80" fill="#93c5fd"/><rect x="240" y="80" width="80" height="80" fill="#60a5fa"/>
    <rect x="0" y="160" width="80" height="80" fill="#60a5fa"/><rect x="80" y="160" width="80" height="80" fill="#93c5fd"/><rect x="160" y="160" width="80" height="80" fill="#dc2626"/><rect x="240" y="160" width="80" height="80" fill="#f97316"/>
    <rect x="0" y="240" width="80" height="80" fill="#2563eb"/><rect x="80" y="240" width="80" height="80" fill="#60a5fa"/><rect x="160" y="240" width="80" height="80" fill="#f97316"/><rect x="240" y="240" width="80" height="80" fill="#dc2626"/>
  </g>
</svg>